REM DIRINDEX 1\2,1\3,1\4
REM DIRNAME cjc151,folder01,folder02,folder03
TITLE ""
FILE "143 143_TOEFL_3900.mp3" MP3
  TRACK 01 AUDIO
    TITLE "2:cjc151_6221"
    INDEX 01 00:00:00
  TRACK 02 AUDIO
    TITLE "0:"
    INDEX 01 00:01:21
  TRACK 03 AUDIO
    TITLE "3:cjc151_6222"
    INDEX 01 00:02:73
  TRACK 04 AUDIO
    TITLE "0:"
    INDEX 01 00:07:33
  TRACK 05 AUDIO
    TITLE "2:cjc151_6223"
    INDEX 01 00:09:12
  TRACK 06 AUDIO
    TITLE "0:"
    INDEX 01 00:10:21
  TRACK 07 AUDIO
    TITLE "3:cjc151_6224"
    INDEX 01 00:12:01
  TRACK 08 AUDIO
    TITLE "0:"
    INDEX 01 00:16:55
  TRACK 09 AUDIO
    TITLE "2:cjc151_6225"
    INDEX 01 00:18:35
  TRACK 10 AUDIO
    TITLE "0:"
    INDEX 01 00:19:40
  TRACK 11 AUDIO
    TITLE "3:cjc151_6226"
    INDEX 01 00:21:19
  TRACK 12 AUDIO
    TITLE "0:"
    INDEX 01 00:24:37
  TRACK 13 AUDIO
    TITLE "2:cjc151_6227"
    INDEX 01 00:26:15
  TRACK 14 AUDIO
    TITLE "0:"
    INDEX 01 00:27:22
  TRACK 15 AUDIO
    TITLE "3:cjc151_6228"
    INDEX 01 00:28:74
  TRACK 16 AUDIO
    TITLE "0:"
    INDEX 01 00:32:56
  TRACK 17 AUDIO
    TITLE "2:cjc151_6229"
    INDEX 01 00:34:36
  TRACK 18 AUDIO
    TITLE "0:"
    INDEX 01 00:35:51
  TRACK 19 AUDIO
    TITLE "3:cjc151_6230"
    INDEX 01 00:37:28
  TRACK 20 AUDIO
    TITLE "0:"
    INDEX 01 00:40:72
  TRACK 21 AUDIO
    TITLE "2:cjc151_6231"
    INDEX 01 00:42:49
  TRACK 22 AUDIO
    TITLE "0:"
    INDEX 01 00:43:58
  TRACK 23 AUDIO
    TITLE "3:cjc151_6232"
    INDEX 01 00:45:37
  TRACK 24 AUDIO
    TITLE "0:"
    INDEX 01 00:49:33
  TRACK 25 AUDIO
    TITLE "2:cjc151_6233"
    INDEX 01 00:51:15
  TRACK 26 AUDIO
    TITLE "0:"
    INDEX 01 00:52:32
  TRACK 27 AUDIO
    TITLE "3:cjc151_6234"
    INDEX 01 00:54:07
  TRACK 28 AUDIO
    TITLE "0:"
    INDEX 01 00:57:48
  TRACK 29 AUDIO
    TITLE "2:cjc151_6235"
    INDEX 01 00:59:28
  TRACK 30 AUDIO
    TITLE "0:"
    INDEX 01 01:00:51
  TRACK 31 AUDIO
    TITLE "3:cjc151_6236"
    INDEX 01 01:02:30
  TRACK 32 AUDIO
    TITLE "0:"
    INDEX 01 01:05:71
  TRACK 33 AUDIO
    TITLE "2:cjc151_6237"
    INDEX 01 01:07:51
  TRACK 34 AUDIO
    TITLE "0:"
    INDEX 01 01:08:62
  TRACK 35 AUDIO
    TITLE "3:cjc151_6238"
    INDEX 01 01:10:39
  TRACK 36 AUDIO
    TITLE "0:"
    INDEX 01 01:14:49
  TRACK 37 AUDIO
    TITLE "2:cjc151_6239"
    INDEX 01 01:16:28
  TRACK 38 AUDIO
    TITLE "0:"
    INDEX 01 01:17:67
  TRACK 39 AUDIO
    TITLE "3:cjc151_6240"
    INDEX 01 01:19:46
  TRACK 40 AUDIO
    TITLE "0:"
    INDEX 01 01:24:32
  TRACK 41 AUDIO
    TITLE "2:cjc151_6241"
    INDEX 01 01:26:11
  TRACK 42 AUDIO
    TITLE "0:"
    INDEX 01 01:27:16
  TRACK 43 AUDIO
    TITLE "3:cjc151_6242"
    INDEX 01 01:28:71
  TRACK 44 AUDIO
    TITLE "0:"
    INDEX 01 01:32:35
  TRACK 45 AUDIO
    TITLE "2:cjc151_6243"
    INDEX 01 01:34:12
  TRACK 46 AUDIO
    TITLE "0:"
    INDEX 01 01:35:27
  TRACK 47 AUDIO
    TITLE "3:cjc151_6244"
    INDEX 01 01:37:05
  TRACK 48 AUDIO
    TITLE "0:"
    INDEX 01 01:41:20
  TRACK 49 AUDIO
    TITLE "2:cjc151_6245"
    INDEX 01 01:42:73
  TRACK 50 AUDIO
    TITLE "0:"
    INDEX 01 01:44:15
  TRACK 51 AUDIO
    TITLE "3:cjc151_6246"
    INDEX 01 01:45:67
  TRACK 52 AUDIO
    TITLE "0:"
    INDEX 01 01:49:69
  TRACK 53 AUDIO
    TITLE "2:cjc151_6247"
    INDEX 01 01:51:48
  TRACK 54 AUDIO
    TITLE "0:"
    INDEX 01 01:52:53
  TRACK 55 AUDIO
    TITLE "3:cjc151_6248"
    INDEX 01 01:54:33
  TRACK 56 AUDIO
    TITLE "0:"
    INDEX 01 01:58:40
  TRACK 57 AUDIO
    TITLE "2:cjc151_6249"
    INDEX 01 02:00:22
  TRACK 58 AUDIO
    TITLE "0:"
    INDEX 01 02:01:33
  TRACK 59 AUDIO
    TITLE "3:cjc151_6250"
    INDEX 01 02:03:12
  TRACK 60 AUDIO
    TITLE "0:"
    INDEX 01 02:07:55
  TRACK 61 AUDIO
    TITLE "2:cjc151_6251"
    INDEX 01 02:09:34
  TRACK 62 AUDIO
    TITLE "0:"
    INDEX 01 02:10:40
  TRACK 63 AUDIO
    TITLE "3:cjc151_6252"
    INDEX 01 02:12:21
  TRACK 64 AUDIO
    TITLE "0:"
    INDEX 01 02:15:64
  TRACK 65 AUDIO
    TITLE "2:cjc151_6253"
    INDEX 01 02:17:44
  TRACK 66 AUDIO
    TITLE "0:"
    INDEX 01 02:18:70
  TRACK 67 AUDIO
    TITLE "3:cjc151_6254"
    INDEX 01 02:20:50
  TRACK 68 AUDIO
    TITLE "0:"
    INDEX 01 02:25:12
  TRACK 69 AUDIO
    TITLE "2:cjc151_6255"
    INDEX 01 02:26:66
  TRACK 70 AUDIO
    TITLE "0:"
    INDEX 01 02:28:14
  TRACK 71 AUDIO
    TITLE "3:cjc151_6256"
    INDEX 01 02:29:68
  TRACK 72 AUDIO
    TITLE "0:"
    INDEX 01 02:35:06
  TRACK 73 AUDIO
    TITLE "2:cjc151_6257"
    INDEX 01 02:36:59
  TRACK 74 AUDIO
    TITLE "0:"
    INDEX 01 02:37:66
  TRACK 75 AUDIO
    TITLE "3:cjc151_6258"
    INDEX 01 02:39:45
  TRACK 76 AUDIO
    TITLE "0:"
    INDEX 01 02:43:02
  TRACK 77 AUDIO
    TITLE "2:cjc151_6259"
    INDEX 01 02:44:56
  TRACK 78 AUDIO
    TITLE "0:"
    INDEX 01 02:45:65
  TRACK 79 AUDIO
    TITLE "3:cjc151_6260"
    INDEX 01 02:47:43
  TRACK 80 AUDIO
    TITLE "0:"
    INDEX 01 02:51:46
  TRACK 81 AUDIO
    TITLE "2:cjc151_6261"
    INDEX 01 02:53:26
  TRACK 82 AUDIO
    TITLE "0:"
    INDEX 01 02:54:43
  TRACK 83 AUDIO
    TITLE "3:cjc151_6262"
    INDEX 01 02:56:20
  TRACK 84 AUDIO
    TITLE "0:"
    INDEX 01 03:01:08
  TRACK 85 AUDIO
    TITLE "2:cjc151_6263"
    INDEX 01 03:02:62
  TRACK 86 AUDIO
    TITLE "0:"
    INDEX 01 03:04:16
  TRACK 87 AUDIO
    TITLE "3:cjc151_6264"
    INDEX 01 03:05:68
  TRACK 88 AUDIO
    TITLE "0:"
    INDEX 01 03:10:44
